<?xml version="1.0" standalone="no"?>
<!DOCTYPE svg PUBLIC "-//W3C//DTD SVG 20010904//EN"
 "http://www.w3.org/TR/2001/REC-SVG-20010904/DTD/svg10.dtd">
<svg version="1.0" xmlns="http://www.w3.org/2000/svg"
 width="512.000000pt" height="512.000000pt" viewBox="0 0 512.000000 512.000000"
 preserveAspectRatio="xMidYMid meet">

<g transform="translate(0.000000,512.000000) scale(0.100000,-0.100000)"
fill="#000000" stroke="none">
<path d="M49 5101 c-28 -23 -32 -83 -6 -109 17 -16 105 -17 1405 -22 1309 -5
1389 -6 1422 -23 42 -21 664 -607 697 -656 22 -33 23 -40 23 -281 l0 -248
-191 -318 c-105 -176 -200 -329 -212 -341 -48 -52 -147 -13 -147 57 0 17 41
187 91 378 68 257 89 352 83 369 -12 31 -391 372 -422 380 -31 7 -330 -85
-354 -109 -15 -15 -18 -37 -18 -152 l0 -134 147 -159 c196 -211 270 -306 288
-367 38 -126 0 -206 -97 -206 -33 0 -67 30 -159 140 l-46 55 -324 129 c-178
71 -345 141 -371 158 -26 16 -157 148 -303 303 -155 167 -266 277 -281 281
-46 12 -103 -49 -87 -93 3 -10 24 -37 46 -60 l40 -42 -34 -5 c-19 -3 -284 -29
-589 -56 -305 -28 -567 -56 -582 -61 -38 -15 -56 -64 -37 -98 8 -14 26 -30 40
-35 18 -6 237 11 684 53 362 34 659 60 660 59 13 -22 296 -325 323 -346 55
-43 90 -59 423 -192 276 -110 307 -124 333 -158 16 -20 57 -64 90 -98 69 -68
123 -90 206 -82 28 3 50 1 50 -4 0 -18 -83 -170 -96 -175 -6 -2 -79 5 -160 17
-159 23 -203 21 -289 -11 -76 -29 -124 -72 -239 -214 -112 -137 -123 -162 -89
-204 15 -18 45 -27 168 -47 83 -15 188 -27 235 -28 76 -1 92 2 152 31 l66 31
7 -36 c9 -50 26 -80 118 -210 85 -121 109 -137 156 -111 17 9 41 46 68 99 71
145 85 189 86 265 0 83 -16 125 -96 244 l-55 83 29 48 c16 26 42 77 59 113
l30 66 42 -19 c87 -39 198 -19 263 48 43 44 415 664 431 719 10 34 14 112 14
293 0 280 -6 315 -67 392 -21 27 -181 182 -356 345 -246 231 -332 306 -384
333 l-66 35 -1397 3 c-1356 2 -1398 2 -1421 -17z m2861 -1107 c103 -94 149
-142 146 -153 -3 -9 -24 -88 -47 -176 -22 -88 -42 -161 -43 -163 -2 -1 -30 33
-63 76 -33 42 -121 143 -197 224 l-136 147 0 63 0 63 83 26 c45 15 88 27 94
28 7 1 80 -60 163 -135z m-377 -1288 c48 -7 90 -16 94 -19 8 -9 -105 -136
-146 -164 -45 -31 -109 -38 -199 -23 -126 21 -123 17 -61 90 63 74 91 96 145
115 49 18 59 18 167 1z m293 -164 c60 -92 65 -141 20 -230 l-22 -44 -26 34
c-64 84 -73 146 -36 235 12 29 24 53 27 53 3 0 20 -22 37 -48z"/>
<path d="M2064 1840 c-138 -15 -234 -62 -327 -159 -66 -68 -101 -127 -132
-219 l-17 -53 -43 75 c-67 118 -126 195 -214 279 -73 69 -85 77 -120 77 -30 0
-44 -6 -55 -22 -33 -46 -22 -71 73 -165 87 -87 152 -176 206 -282 l27 -54 -24
7 c-67 21 -100 26 -171 26 l-79 0 -76 71 c-43 39 -102 83 -132 98 -51 24 -67
26 -210 29 -147 4 -157 3 -183 -18 l-28 -22 3 -172 c4 -200 9 -216 109 -331
l60 -70 -198 -5 c-194 -5 -199 -6 -245 -33 -154 -90 -154 -324 0 -414 46 -27
50 -28 232 -31 l185 -3 185 -183 c129 -128 201 -191 237 -210 117 -59 48 -56
1505 -56 946 0 1353 3 1390 11 110 23 152 53 351 249 l188 185 188 5 c188 5
188 5 237 35 30 19 60 49 79 79 27 44 30 58 30 126 0 68 -4 83 -31 126 -55 90
-113 114 -275 114 l-106 0 -13 62 c-74 376 -425 634 -800 587 -72 -9 -167 -35
-232 -63 -13 -6 -22 3 -43 45 -56 110 -190 221 -313 259 -58 18 -93 20 -377
20 -289 0 -313 -1 -328 -18 -24 -27 -22 -85 4 -108 19 -17 44 -19 293 -24
l271 -5 -52 -52 c-61 -62 -120 -83 -228 -83 -139 0 -207 -39 -322 -183 -37
-45 -70 -76 -97 -88 -50 -23 -134 -24 -184 -3 -43 17 -97 67 -118 107 -15 27
-68 296 -61 303 2 2 54 6 115 7 130 4 152 15 152 77 0 57 -22 70 -126 75 -49
2 -121 0 -160 -5z m1282 -218 c54 -39 103 -98 126 -149 l19 -44 -71 -76 c-84
-90 -162 -237 -183 -348 l-14 -70 -747 -3 -748 -2 4 232 c4 215 6 238 28 293
24 62 131 185 161 185 11 0 20 -32 37 -127 27 -150 60 -229 123 -292 125 -125
350 -148 480 -48 23 17 70 66 104 107 81 99 118 120 215 120 129 0 225 37 312
118 27 26 61 66 75 89 14 24 28 43 32 43 5 0 26 -13 47 -28z m534 -387 c0
-107 -2 -195 -3 -195 -2 0 -64 63 -137 140 -125 132 -131 142 -114 155 32 25
120 66 171 80 90 25 83 40 83 -180z m275 164 c56 -21 145 -74 145 -86 0 -5
-61 -69 -135 -143 l-135 -135 0 198 0 198 38 -7 c20 -4 60 -15 87 -25z m-3243
-12 c15 -7 69 -50 119 -97 l93 -85 122 -5 c155 -6 161 -10 231 -150 29 -58 53
-108 53 -112 0 -5 -134 -8 -297 -8 l-298 0 -100 116 c-55 63 -105 125 -112
137 -7 13 -12 62 -13 120 l0 97 88 0 c48 -1 99 -6 114 -13z m2726 -317 l134
-140 -198 0 -197 0 7 40 c12 79 89 240 113 240 5 0 68 -63 141 -140z m837 39
c19 -37 55 -149 55 -173 0 -3 -89 -6 -197 -6 l-198 0 140 140 139 139 19 -27
c10 -15 29 -48 42 -73z m428 -340 c61 -28 61 -130 0 -158 -16 -7 -148 -11
-409 -11 -253 0 -392 -4 -405 -11 -48 -25 -44 -105 7 -128 14 -6 77 -11 142
-11 l117 0 -127 -125 c-84 -84 -143 -133 -175 -148 l-48 -22 -1370 0 -1370 0
-50 25 c-32 15 -96 69 -175 147 l-125 122 1443 1 1443 0 24 25 c30 30 32 64 4
99 l-20 26 -1709 0 c-1231 0 -1716 3 -1733 11 -59 27 -61 129 -3 157 31 15
4506 16 4539 1z"/>
</g>
</svg>
